<?xml version="1.0" standalone="no"?>
<!DOCTYPE svg PUBLIC "-//W3C//DTD SVG 20010904//EN"
 "http://www.w3.org/TR/2001/REC-SVG-20010904/DTD/svg10.dtd">
<svg version="1.0" xmlns="http://www.w3.org/2000/svg"
 width="300.000000pt" height="300.000000pt" viewBox="0 0 300.000000 300.000000"
 preserveAspectRatio="xMidYMid meet">
<metadata>
Created by potrace 1.11, written by Peter Selinger 2001-2013
</metadata>
<g transform="translate(0.000000,300.000000) scale(0.100000,-0.100000)"
fill="#000000" stroke="none">
<path d="M1445 2261 c-69 -17 -107 -65 -107 -136 0 -135 182 -187 252 -72 62
101 -31 235 -145 208z"/>
<path d="M105 2043 c42 -67 108 -119 203 -159 47 -21 51 -24 22 -19 -34 5 -34
5 -13 -10 31 -22 118 -59 178 -76 71 -20 289 -17 385 5 41 9 86 19 98 22 13 3
43 11 65 19 23 8 45 15 48 15 4 0 7 -25 8 -55 3 -144 65 -266 170 -337 96 -65
141 -120 141 -176 0 -26 25 -62 43 -62 4 0 7 127 7 282 0 214 -3 279 -12 270
-7 -7 -12 -55 -13 -129 -2 -129 -14 -170 -52 -179 -50 -13 -111 64 -143 180
-27 97 -14 186 40 266 16 25 30 51 30 58 0 10 -37 24 -65 24 -30 1 -85 -15
-85 -23 0 -6 9 -9 20 -6 11 3 20 2 20 -3 0 -28 -121 -17 -190 18 -72 36 -74
36 -66 24 4 -7 -9 -15 -33 -22 -235 -63 -513 -38 -740 66 -41 19 -76 34 -79
34 -2 0 4 -12 13 -27z m298 -190 c-7 -2 -19 -2 -25 0 -7 3 -2 5 12 5 14 0 19
-2 13 -5z"/>
<path d="M2858 2055 c-71 -36 -220 -88 -298 -102 -130 -24 -304 -23 -426 3
-90 18 -94 20 -94 40 0 12 -7 10 -30 -9 -36 -31 -84 -48 -141 -49 -65 -1 -79
1 -79 12 0 6 11 8 28 4 21 -5 24 -4 16 6 -18 18 -125 25 -146 8 -16 -12 -15
-16 13 -57 66 -99 76 -226 25 -337 -32 -70 -81 -124 -113 -124 -43 0 -58 41
-63 184 -3 73 -9 131 -15 133 -7 2 -10 -93 -10 -277 0 -154 2 -280 5 -280 15
1 39 30 44 53 3 15 8 38 11 50 6 31 57 84 120 126 114 77 169 176 182 326 3
38 7 71 8 73 1 1 23 -4 49 -13 160 -55 404 -78 523 -50 81 19 167 52 195 75
l23 19 -44 -10 c-24 -5 -46 -8 -48 -5 -2 2 11 7 29 11 43 9 141 58 184 93 36
28 90 99 83 107 -3 2 -17 -2 -31 -10z m-281 -211 c-3 -3 -12 -4 -19 -1 -8 3
-5 6 6 6 11 1 17 -2 13 -5z"/>
<path d="M1059 1815 c-3 -2 -32 -11 -64 -20 -80 -22 -87 -23 -109 -24 -13 -1
-16 -6 -12 -17 5 -14 4 -15 -8 -5 -19 16 -62 10 -58 -8 2 -11 0 -12 -10 -4 -8
7 -52 10 -117 7 -80 -3 -111 -8 -137 -23 -52 -31 -44 -45 22 -37 30 3 72 13
92 21 l37 14 -29 -22 c-16 -12 -47 -35 -69 -52 -80 -60 -54 -71 60 -26 l72 28
-60 -56 c-56 -53 -72 -81 -49 -81 14 0 78 31 126 61 l38 23 -52 -62 c-51 -61
-64 -92 -40 -92 12 0 118 77 130 94 4 6 8 7 8 3 0 -5 -8 -21 -19 -35 -30 -43
-61 -109 -54 -116 13 -13 26 -4 83 54 l59 61 -24 -54 c-33 -70 -43 -121 -24
-115 13 4 79 82 106 124 8 12 7 3 -2 -24 -8 -24 -17 -65 -21 -93 -5 -40 -4
-48 7 -44 14 5 69 85 69 101 0 5 8 18 17 29 13 17 15 17 9 2 -12 -35 -17 -145
-7 -151 14 -9 40 33 61 101 13 39 19 50 20 33 0 -14 2 -48 3 -77 3 -66 21 -89
38 -47 6 16 17 56 24 89 7 33 14 50 15 38 2 -13 3 -26 4 -30 1 -5 5 -29 10
-55 14 -89 43 -75 52 24 l6 67 -56 57 c-31 31 -56 61 -56 66 0 5 -4 7 -8 4 -4
-2 -8 3 -9 12 -2 29 -30 94 -44 103 -10 6 -11 9 -1 9 15 0 5 51 -12 62 -7 5
-7 8 -1 8 6 0 11 18 11 40 0 35 -12 51 -27 35z m-98 -72 c13 -16 12 -17 -3 -4
-10 7 -18 15 -18 17 0 8 8 3 21 -13z m40 -30 c13 -16 12 -17 -3 -4 -10 7 -18
15 -18 17 0 8 8 3 21 -13z m-170 -10 c13 -16 12 -17 -3 -4 -17 13 -22 21 -14
21 2 0 10 -8 17 -17z m110 -20 c13 -16 12 -17 -3 -4 -10 7 -18 15 -18 17 0 8
8 3 21 -13z m89 -59 c0 -2 -9 0 -20 6 -11 6 -20 13 -20 16 0 2 9 0 20 -6 11
-6 20 -13 20 -16z"/>
<path d="M1902 1773 c0 -27 -3 -59 -6 -73 -3 -14 0 -27 7 -32 8 -5 7 -8 -5 -8
-10 0 -18 -8 -18 -18 0 -9 -9 -34 -20 -55 -23 -43 -25 -51 -7 -41 7 4 9 3 4
-2 -5 -5 -12 -9 -15 -9 -4 -1 -31 -25 -60 -55 -44 -45 -53 -60 -54 -90 0 -50
12 -119 22 -125 8 -5 27 19 29 38 1 4 1 8 2 10 3 11 9 47 11 70 3 32 18 37 18
6 0 -28 21 -100 33 -117 18 -23 27 2 30 76 2 79 6 80 32 6 22 -64 43 -94 53
-77 8 13 7 74 -2 133 -5 31 -3 28 25 -25 67 -129 94 -120 58 19 -12 45 -6 58
12 24 22 -41 72 -98 86 -98 17 0 10 35 -23 109 -13 29 -24 55 -24 56 0 2 25
-23 57 -56 52 -55 83 -73 83 -49 0 14 -37 87 -63 125 -20 28 -20 29 -2 15 11
-8 22 -18 25 -21 14 -17 95 -69 107 -69 22 0 15 16 -38 86 -48 64 -49 66 -17
45 54 -36 119 -64 129 -54 9 9 -45 73 -95 111 -37 28 -34 28 49 -8 39 -16 78
-30 88 -30 32 0 17 27 -38 66 -31 21 -63 45 -73 51 -11 9 -2 8 27 -2 60 -21
151 -31 151 -17 0 6 -15 20 -34 32 -28 17 -55 22 -142 25 -60 2 -121 7 -137
11 -24 5 -36 0 -65 -27 -34 -31 -35 -32 -9 -3 34 38 34 44 -3 44 -16 0 -41 5
-55 12 -21 9 -31 9 -48 -2 -19 -12 -21 -11 -10 2 11 13 7 17 -26 26 -21 7 -41
12 -44 12 -2 0 -5 -21 -5 -47z m58 -7 c0 -2 -8 -10 -17 -17 -16 -13 -17 -12
-4 4 13 16 21 21 21 13z m50 -40 c0 -2 -8 -10 -17 -17 -16 -13 -17 -12 -4 4
13 16 21 21 21 13z m45 -46 c-3 -5 -12 -10 -18 -10 -7 0 -6 4 3 10 19 12 23
12 15 0z m95 6 c0 -2 -8 -10 -17 -17 -16 -13 -17 -12 -4 4 13 16 21 21 21 13z
m-90 -70 c0 -2 -8 -10 -17 -17 -16 -13 -17 -12 -4 4 13 16 21 21 21 13z m-157
-73 c-7 -2 -19 -2 -25 0 -7 3 -2 5 12 5 14 0 19 -2 13 -5z"/>
<path d="M1233 1125 c-47 -20 -57 -47 -58 -162 l-1 -103 41 0 41 0 -1 85 c-1
46 2 90 6 97 16 25 24 -6 24 -90 l0 -87 43 -3 43 -3 -2 103 c-2 118 -14 151
-60 167 -39 13 -37 13 -76 -4z"/>
<path d="M1703 1123 c-43 -20 -53 -51 -53 -163 l0 -100 40 0 40 0 0 95 c0 78
3 95 15 95 16 0 18 -20 15 -132 l-1 -58 40 0 c32 0 41 4 42 18 1 19 1 156 0
184 -1 27 -44 67 -77 71 -17 3 -45 -2 -61 -10z"/>
<path d="M1414 1115 c-4 -9 -5 -60 -2 -115 3 -87 7 -103 26 -123 34 -33 103
-31 138 5 26 26 27 31 28 135 l1 108 -40 0 -40 0 0 -85 c0 -82 -8 -116 -24
-105 -5 2 -8 47 -7 100 l1 95 -38 0 c-24 0 -40 -5 -43 -15z"/>
</g>
</svg>
